PathFileType	4	(X/Y/Z)	markers
DataRate	CameraRate	NumFrames	NumMarkers	Units	OrigDataRate	OrigDataStartFrame	OrigNumFrames
200	200	4	39	mm	200	158	252
Frame#	Time	RASI			LASI			RPSI			LPSI			RTH1			RTH2			RTH3			RTH4			RLFC			RTB1			RTB2			RTB3			RTB4			RLMAL			RCAL			RTOE			RMT5			LTH1			LTH2			LTH3			LTH4			LLFC			LTB1			LTB2			LTB3			LTB4			LLMAL			LCAL			LTOE			LMT5			C7			T10			CLAV			RACR			LACR			RLEL			RFAradius			LLEL			LFAradius		
		X1	Y1	Z1	X2	Y2	Z2	X3	Y3	Z3	X4	Y4	Z4	X5	Y5	Z5	X6	Y6	Z6	X7	Y7	Z7	X8	Y8	Z8	X9	Y9	Z9	X10	Y10	Z10	X11	Y11	Z11	X12	Y12	Z12	X13	Y13	Z13	X14	Y14	Z14	X15	Y15	Z15	X16	Y16	Z16	X17	Y17	Z17	X18	Y18	Z18	X19	Y19	Z19	X20	Y20	Z20	X21	Y21	Z21	X22	Y22	Z22	X23	Y23	Z23	X24	Y24	Z24	X25	Y25	Z25	X26	Y26	Z26	X27	Y27	Z27	X28	Y28	Z28	X29	Y29	Z29	X30	Y30	Z30	X31	Y31	Z31	X32	Y32	Z32	X33	Y33	Z33	X34	Y34	Z34	X35	Y35	Z35	X36	Y36	Z36	X37	Y37	Z37	X38	Y38	Z38	X39	Y39	Z39
158	0.785000	2247.957933	993.501061	745.164179	2246.789736	1020.136828	511.595546	2086.374190	1048.686630	679.435142	2082.728618	1051.819426	581.010559	2143.944695	739.300543	776.526468	2199.601338	718.777759	751.457320	2164.750905	622.716964	742.946703	2121.340649	634.338491	764.467846	2061.159180	512.679136	744.971216	1937.928323	475.375060	764.391403	1958.692067	434.438593	743.824172	1864.292708	387.197565	724.039276	1843.048998	441.178553	753.474797	1653.014585	358.108219	717.062201	1601.775213	412.336088	665.252150	1655.344064	198.176427	618.042915	1633.617996	220.075325	720.448564	2296.523412	769.054810	448.670087	2320.014271	785.886151	489.310567	2353.160189	692.434387	515.691752	2324.226948	665.442168	463.665624	2340.362942	545.925762	476.268323	2359.947120	446.580223	456.323891	2401.460629	459.353301	481.512229	2426.269242	362.972103	501.866621	2374.793497	340.609424	468.633859	2457.685485	139.392379	520.141671	2403.165157	69.500865	580.043512	2601.588340	179.192815	598.852275	2577.316908	136.455081	504.823706	2123.478010	1543.442042	629.115780	2056.260238	1343.850916	649.336154	2236.573822	1471.602005	628.500698	2202.763239	1527.731404	782.784945	2142.350398	1514.504519	454.953191	2195.042838	1206.174083	895.222519	2383.967337	1202.406641	730.723532	1922.330299	1271.317842	383.127555	2156.780174	1168.521868	404.933347
159	0.790000	2263.786308	991.492774	745.092696	2261.703038	1017.611599	511.767721	2101.855771	1044.834034	678.969329	2098.104157	1048.265248	580.835494	2161.398922	736.204045	777.417680	2217.079234	715.975660	752.098814	2183.551599	619.771181	744.810933	2139.802294	630.883950	766.244398	2082.349796	508.443328	745.928737	1958.557421	474.099848	766.044220	1978.480376	432.681344	745.630491	1882.821095	387.052975	724.950124	1862.834839	441.536567	753.699116	1670.835696	364.469014	717.321210	1621.302608	419.254056	664.632695	1669.654517	203.592531	619.441185	1646.516545	226.275503	720.164358	2313.514221	768.094193	448.981566	2335.851560	784.933479	490.285402	2368.949408	691.601951	517.694669	2341.616694	664.577952	465.032775	2356.951309	544.821019	476.871653	2374.645298	443.846121	456.521602	2416.806320	456.619523	479.920067	2440.946684	359.621669	501.531050	2389.513520	338.048011	468.135176	2469.314203	135.441767	519.359302	2416.266449	66.637566	580.378325	2614.374899	175.868946	599.243147	2590.761061	131.920699	505.864731	2139.171700	1541.143157	627.716516	2071.309829	1340.924680	648.789075	2251.849194	1468.656677	628.538098	2217.628074	1525.069645	782.355679	2158.125185	1511.242692	454.114875	2208.377138	1203.403419	895.307672	2398.635079	1196.218205	731.185133	1940.037679	1266.523908	382.506803	2174.438170	1164.259426	404.037266
160	0.795000	2279.327624	988.647567	745.186393	2277.125817	1015.111348	511.760914	2116.952444	1041.226719	678.873439	2113.374389	1044.606363	581.438650	2178.340205	732.594319	778.327391	2235.277035	712.994512	752.866192	2202.790606	616.441027	745.845697	2158.568455	627.786471	768.162260	2103.044179	504.845317	748.275070	1979.411800	471.687342	766.624159	1998.488734	429.853687	747.019063	1901.361398	386.549515	725.782796	1882.444639	441.738199	754.424088	1689.390816	370.490029	718.042080	1641.187728	424.959091	664.019752	1684.870259	207.892432	621.447640	1661.356560	232.501612	722.077169	2330.026812	767.119043	450.328911	2352.026766	784.068099	491.636324	2385.239810	691.045378	519.534665	2358.071166	663.639290	466.390782	2373.289496	542.374460	477.639850	2389.335080	440.323486	456.713588	2431.647117	452.767220	481.472609	2455.489763	355.941040	501.265859	2402.952971	335.147102	468.540065	2483.144488	132.559676	519.097235	2427.538604	63.342519	580.060355	2626.347259	171.093648	599.898239	2602.916518	127.340428	506.359586	2154.468114	1537.944960	627.244964	2086.685044	1338.463852	648.220944	2267.793974	1464.987161	627.899076	2232.923945	1522.126536	781.820704	2174.426374	1507.942759	453.390075	2222.239129	1200.169408	895.348185	2412.338442	1190.588086	732.109826	1957.245705	1261.496774	382.032155	2191.233310	1159.781361	403.595533
161	0.800000	2295.086176	985.896346	744.711659	2292.895572	1012.198518	511.765691	2132.573151	1037.201225	678.711314	2128.346196	1041.281788	581.730629	2196.274926	729.428760	778.889517	2252.704985	710.481885	754.749364	2222.236399	613.765753	749.288525	2177.968282	623.489383	768.724745	2124.319608	500.119827	749.577436	2000.546602	470.232484	768.541578	2018.039946	426.860470	748.711573	1920.577853	386.031161	727.097750	1903.195982	441.491257	754.371929	1707.856072	375.009899	717.810039	1661.513486	430.492717	662.651961	1701.011946	212.394732	623.749710	1677.484417	238.431874	724.178954	2346.513797	765.854274	451.435786	2368.724793	783.024025	492.301556	2402.065256	690.570483	521.054010	2374.333560	662.020762	467.861016	2389.080693	539.763306	477.662030	2403.936014	437.281250	457.820805	2446.499802	449.728903	481.094607	2469.865081	352.038989	501.125690	2416.494044	331.561510	468.675448	2493.845709	130.564927	518.646263	2435.555220	64.927028	579.531862	2637.360077	164.676884	600.451090	2613.617746	122.361243	506.712071	2169.911392	1534.255094	626.046681	2101.718376	1335.072271	647.678181	2282.943500	1461.743266	627.722569	2248.337217	1518.712804	781.482241	2190.178597	1504.014107	452.468991	2235.277182	1196.896511	895.252273	2426.221506	1183.860846	733.148950	1975.028530	1255.936446	381.787774	2209.063691	1154.265905	403.337062
